<svg width="159" height="36" viewBox="0 0 159 36" fill="none" xmlns="http://www.w3.org/2000/svg">
<g id="Logo">
<g id="Meta">
<path d="M45.5024 27.8182V9.53181H47.232L54.1504 19.4973H53.1868L60.0805 9.53181H61.81V27.8182H59.8334V12.1827L60.4758 12.4282L53.7057 22.1727H53.6068L46.8614 12.4282L47.4791 12.1827V27.8182H45.5024Z" fill="#141624"/>
<path d="M71.9143 28.1127C70.6789 28.1127 69.5587 27.8182 68.5539 27.2291C67.5656 26.6236 66.7831 25.7973 66.2066 24.75C65.6301 23.7027 65.3418 22.5164 65.3418 21.1909C65.3418 19.8655 65.6218 18.6955 66.1819 17.6809C66.742 16.65 67.4997 15.84 68.4551 15.2509C69.427 14.6618 70.5141 14.3673 71.7166 14.3673C72.672 14.3673 73.5203 14.5473 74.2616 14.9073C75.0193 15.2509 75.6617 15.7255 76.1888 16.3309C76.716 16.92 77.1195 17.5909 77.3996 18.3436C77.6796 19.08 77.8196 19.8409 77.8196 20.6264C77.8196 20.79 77.8114 20.9782 77.7949 21.1909C77.7784 21.3873 77.7537 21.5918 77.7208 21.8045H66.5278V20.0864H76.6583L75.7688 20.8227C75.9171 19.9227 75.81 19.1209 75.4476 18.4173C75.1017 17.6973 74.5993 17.1327 73.9404 16.7236C73.2815 16.2982 72.5402 16.0855 71.7166 16.0855C70.893 16.0855 70.127 16.2982 69.4187 16.7236C68.7269 17.1491 68.1833 17.7464 67.788 18.5155C67.3926 19.2682 67.2361 20.1682 67.3185 21.2155C67.2361 22.2627 67.4009 23.1791 67.8127 23.9645C68.2409 24.7336 68.8175 25.3309 69.5423 25.7564C70.2835 26.1818 71.0742 26.3945 71.9143 26.3945C72.8861 26.3945 73.7015 26.1655 74.3604 25.7073C75.0193 25.2491 75.5547 24.6764 75.9665 23.9891L77.5478 24.8236C77.2843 25.4127 76.8807 25.9609 76.3371 26.4682C75.7935 26.9591 75.1429 27.36 74.3851 27.6709C73.6439 27.9655 72.8203 28.1127 71.9143 28.1127Z" fill="#141624"/>
<path d="M86.1522 27.9655C84.9662 27.9655 84.0519 27.6218 83.4095 26.9345C82.7671 26.2473 82.4459 25.2655 82.4459 23.9891V16.5027H79.9997V14.6618H80.6175C81.1775 14.6618 81.6223 14.4818 81.9517 14.1218C82.2812 13.7455 82.4459 13.2791 82.4459 12.7227V11.6182H84.299V14.6618H87.2146V16.5027H84.299V23.9891C84.299 24.4309 84.3649 24.8236 84.4967 25.1673C84.6285 25.4945 84.8508 25.7564 85.1638 25.9527C85.4933 26.1491 85.9298 26.2473 86.4734 26.2473C86.6052 26.2473 86.7616 26.2391 86.9428 26.2227C87.124 26.2064 87.2805 26.19 87.4123 26.1736V27.8182C87.2146 27.8673 86.9923 27.9 86.7452 27.9164C86.4981 27.9491 86.3004 27.9655 86.1522 27.9655Z" fill="#141624"/>
<path d="M94.2548 28.1127C93.4147 28.1127 92.6652 27.9573 92.0063 27.6464C91.3474 27.3191 90.8286 26.8773 90.4497 26.3209C90.0708 25.7645 89.8814 25.1264 89.8814 24.4064C89.8814 23.7191 90.0297 23.0973 90.3262 22.5409C90.6227 21.9682 91.0839 21.4855 91.7098 21.0927C92.3358 20.7 93.1347 20.4218 94.1066 20.2582L99.2953 19.3991V21.0682L94.5513 21.8536C93.5959 22.0173 92.9041 22.32 92.4758 22.7618C92.064 23.2036 91.8581 23.7273 91.8581 24.3327C91.8581 24.9218 92.0887 25.4209 92.5499 25.83C93.0276 26.2391 93.6371 26.4436 94.3784 26.4436C95.2843 26.4436 96.075 26.2555 96.7504 25.8791C97.4257 25.4864 97.9528 24.9627 98.3317 24.3082C98.7106 23.6536 98.9 22.9255 98.9 22.1236V18.7855C98.9 18 98.6117 17.3618 98.0352 16.8709C97.4587 16.38 96.7092 16.1345 95.7867 16.1345C94.9796 16.1345 94.2713 16.3391 93.6618 16.7482C93.0523 17.1409 92.5993 17.6564 92.3028 18.2945L90.6227 17.3864C90.8697 16.83 91.2568 16.3227 91.784 15.8645C92.3275 15.4064 92.9453 15.0464 93.6371 14.7845C94.3289 14.5064 95.0455 14.3673 95.7867 14.3673C96.7586 14.3673 97.6152 14.5555 98.3564 14.9318C99.1142 15.3082 99.6989 15.8318 100.111 16.5027C100.539 17.1573 100.753 17.9182 100.753 18.7855V27.8182H98.9V25.1918L99.1718 25.4618C98.9412 25.9527 98.5788 26.4027 98.0846 26.8118C97.6069 27.2045 97.0386 27.5236 96.3797 27.7691C95.7373 27.9982 95.029 28.1127 94.2548 28.1127Z" fill="#141624"/>
</g>
<g id="Blog">
<path d="M105.906 27.8182V9.53182H113.689C114.958 9.53182 116.045 9.74455 116.951 10.17C117.857 10.5955 118.549 11.2091 119.026 12.0109C119.504 12.7964 119.743 13.7536 119.743 14.8827C119.743 15.6846 119.521 16.4536 119.076 17.19C118.631 17.91 117.898 18.5155 116.877 19.0064V17.1409C117.849 17.5173 118.598 17.9673 119.125 18.4909C119.652 19.0146 120.015 19.5873 120.212 20.2091C120.41 20.8146 120.509 21.4527 120.509 22.1236C120.509 23.9236 119.908 25.3227 118.705 26.3209C117.503 27.3191 115.831 27.8182 113.689 27.8182H105.906ZM109.736 24.5046H114.134C114.908 24.5046 115.526 24.2836 115.987 23.8418C116.449 23.4 116.679 22.8273 116.679 22.1236C116.679 21.4036 116.449 20.8227 115.987 20.3809C115.526 19.9391 114.908 19.7182 114.134 19.7182H109.736V24.5046ZM109.736 16.4046H113.961C114.554 16.4046 115.024 16.2409 115.37 15.9136C115.732 15.57 115.913 15.12 115.913 14.5636C115.913 14.0073 115.732 13.5655 115.37 13.2382C115.024 12.8946 114.554 12.7227 113.961 12.7227H109.736V16.4046Z" fill="#141624"/>
<path d="M122.694 27.8182V9.23728H126.4V27.8182H122.694Z" fill="#141624"/>
<path d="M135.808 28.1127C134.474 28.1127 133.255 27.81 132.151 27.2046C131.064 26.5991 130.191 25.7727 129.532 24.7255C128.89 23.6618 128.569 22.4591 128.569 21.1173C128.569 19.7591 128.89 18.5564 129.532 17.5091C130.191 16.4618 131.064 15.6355 132.151 15.03C133.255 14.4246 134.474 14.1218 135.808 14.1218C137.143 14.1218 138.353 14.4246 139.441 15.03C140.528 15.6355 141.392 16.4618 142.035 17.5091C142.694 18.5564 143.023 19.7591 143.023 21.1173C143.023 22.4591 142.694 23.6618 142.035 24.7255C141.392 25.7727 140.528 26.5991 139.441 27.2046C138.353 27.81 137.143 28.1127 135.808 28.1127ZM135.808 24.7991C136.484 24.7991 137.068 24.6436 137.563 24.3327C138.073 24.0218 138.469 23.5882 138.749 23.0318C139.045 22.4755 139.193 21.8373 139.193 21.1173C139.193 20.3973 139.045 19.7673 138.749 19.2273C138.469 18.6709 138.073 18.2373 137.563 17.9264C137.068 17.5991 136.484 17.4355 135.808 17.4355C135.133 17.4355 134.54 17.5991 134.029 17.9264C133.519 18.2373 133.115 18.6709 132.819 19.2273C132.539 19.7673 132.399 20.3973 132.399 21.1173C132.399 21.8373 132.539 22.4755 132.819 23.0318C133.115 23.5882 133.519 24.0218 134.029 24.3327C134.54 24.6436 135.133 24.7991 135.808 24.7991Z" fill="#141624"/>
<path d="M151.829 33.2182C150.791 33.2182 149.827 33.0464 148.938 32.7027C148.048 32.3591 147.282 31.8764 146.64 31.2546C146.014 30.6491 145.561 29.9291 145.281 29.0946L148.715 27.8918C148.896 28.5136 149.267 29.0046 149.827 29.3646C150.387 29.7246 151.054 29.9046 151.829 29.9046C152.438 29.9046 152.965 29.79 153.41 29.5609C153.855 29.3482 154.192 29.0291 154.423 28.6036C154.67 28.1782 154.794 27.6791 154.794 27.1064V24.0382L155.51 24.9218C155.049 25.6746 154.456 26.2391 153.731 26.6155C153.006 26.9755 152.158 27.1555 151.186 27.1555C149.934 27.1555 148.814 26.8773 147.826 26.3209C146.837 25.7482 146.063 24.9709 145.503 23.9891C144.943 22.9909 144.663 21.8618 144.663 20.6018C144.663 19.3418 144.943 18.2291 145.503 17.2636C146.063 16.2818 146.829 15.5127 147.801 14.9564C148.773 14.4 149.877 14.1218 151.112 14.1218C152.084 14.1218 152.932 14.3182 153.657 14.7109C154.382 15.0873 154.999 15.6682 155.51 16.4536L155.041 17.3373V14.4164H158.5V27.1064C158.5 28.2846 158.212 29.3318 157.635 30.2482C157.058 31.1809 156.268 31.9091 155.263 32.4327C154.275 32.9564 153.13 33.2182 151.829 33.2182ZM151.705 23.8173C152.331 23.8173 152.875 23.6864 153.336 23.4246C153.797 23.1627 154.151 22.7946 154.398 22.32C154.662 21.8455 154.794 21.2891 154.794 20.6509C154.794 20.0127 154.662 19.4564 154.398 18.9818C154.135 18.4909 153.772 18.1146 153.311 17.8527C152.85 17.5746 152.314 17.4355 151.705 17.4355C151.079 17.4355 150.519 17.5746 150.025 17.8527C149.547 18.1146 149.168 18.4909 148.888 18.9818C148.625 19.4564 148.493 20.0127 148.493 20.6509C148.493 21.2727 148.625 21.8209 148.888 22.2955C149.168 22.77 149.547 23.1464 150.025 23.4246C150.519 23.6864 151.079 23.8173 151.705 23.8173Z" fill="#141624"/>
</g>
<g id="Union">
<path d="M18.5 36C28.4411 36 36.5 27.9411 36.5 18C36.5 8.05888 28.4411 0 18.5 0C8.55888 0 0.5 8.05888 0.5 18C0.5 22.152 1.90577 25.9756 4.26732 29.021L8.23554 14.0299C9.88672 7.52344 14.1758 4.15725 21.0616 4.15725H23.436C28.2785 4.15725 31.835 8.70307 30.6698 13.4033C30.4609 14.2463 30.0702 15.0334 29.5253 15.7097L27.5045 18.2174C26.986 18.8609 26.7968 19.7092 26.993 20.5121L27.609 23.0338C27.9278 24.339 27.8695 25.708 27.441 26.9814C25.9832 31.3132 21.9227 34.231 17.3521 34.231H10.7086C13.0662 35.3648 15.7089 36 18.5 36Z" fill="#141624"/>
<path fill-rule="evenodd" clip-rule="evenodd" d="M18.2 21.7592H14.6932C13.5747 21.7592 12.5968 22.5135 12.3129 23.5953L10.9373 28.8354H16.371C18.3811 28.8354 20.1384 27.4799 20.6487 25.5357L20.7666 25.0865C21.2082 23.4043 19.9392 21.7592 18.2 21.7592ZM17.1646 23.3514H15.259C14.6206 23.3514 14.0623 23.7814 13.8993 24.3988L13.1486 27.2432H16.1532C17.2647 27.2432 18.2364 26.4977 18.5186 25.4284L18.5838 25.1814C18.828 24.2562 18.1263 23.3514 17.1646 23.3514Z" fill="#141624"/>
<path fill-rule="evenodd" clip-rule="evenodd" d="M15.4971 11.7427C15.7811 10.6609 16.7589 9.90663 17.8774 9.90663H21.3843C23.1235 9.90663 24.3925 11.5517 23.9509 13.2339L23.833 13.6831C23.3227 15.6273 21.5654 16.9828 19.5553 16.9828H14.1216L15.4971 11.7427ZM17.0836 12.5462C17.2465 11.9289 17.8049 11.4988 18.4433 11.4988H20.3489C21.3106 11.4988 22.0123 12.4036 21.7681 13.3288L21.7029 13.5758C21.4207 14.6451 20.449 15.3907 19.3375 15.3907H16.3329L17.0836 12.5462Z" fill="#141624"/>
</g>
</g>
</svg>
